<svg width="320" height="390" viewBox="0 0 320 390" fill="none" xmlns="http://www.w3.org/2000/svg">
<path d="M130.185 368.189C60.8526 368.189 4.64597 311.903 4.64598 242.471C4.64598 173.038 60.8526 116.753 130.185 116.753C199.518 116.753 255.725 173.038 255.725 242.471C255.725 311.903 199.518 368.189 130.185 368.189Z" stroke="#E3E3E3"/>
<path d="M143.453 373.171C65.8767 373.171 2.98766 310.194 2.98766 232.506C2.98767 154.818 65.8767 91.8413 143.453 91.8413C221.029 91.8413 283.918 154.818 283.918 232.506C283.918 310.194 221.029 373.171 143.453 373.171Z" stroke="#E3E3E3"/>
<path d="M154.232 378.153C69.329 378.153 0.499928 309.228 0.499932 224.203C0.499936 139.177 69.329 70.2519 154.232 70.2519C239.136 70.252 307.965 139.177 307.965 224.203C307.965 309.228 239.136 378.153 154.232 378.153Z" stroke="#E3E3E3"/>
<path d="M169.988 381.475C78.6729 381.475 4.64638 307.345 4.64639 215.899C4.64639 124.453 78.6729 50.3227 169.988 50.3227C261.303 50.3228 335.329 124.453 335.329 215.899C335.329 307.345 261.303 381.475 169.988 381.475Z" stroke="#E3E3E3"/>
<path d="M185.328 384.797C87.8306 384.796 8.79222 305.647 8.79223 208.01C8.79223 110.373 87.8306 31.2241 185.328 31.2241C282.825 31.2241 361.864 110.373 361.864 208.01C361.864 305.647 282.825 384.797 185.328 384.797Z" stroke="#E3E3E3"/>
<path d="M202.741 388.949C95.6269 388.949 8.79235 301.992 8.79235 194.724C8.79235 87.4567 95.6269 0.500231 202.741 0.500236C309.856 0.50024 396.69 87.4567 396.69 194.724C396.69 301.992 309.856 388.949 202.741 388.949Z" stroke="#E3E3E3"/>
</svg>
