<svg width="107" height="36" viewBox="0 0 107 36" fill="none" xmlns="http://www.w3.org/2000/svg">
<path d="M0 18.0679C0 8.40289 7.83502 0.567871 17.5 0.567871H89.5C99.165 0.567871 107 8.40289 107 18.0679C107 27.7329 99.165 35.5679 89.5 35.5679H17.5C7.83502 35.5679 0 27.7329 0 18.0679Z" fill="#080809"/>
<path d="M28.5073 17.5697L18.4638 27.2409C17.9935 26.9195 17.7142 26.3848 17.7192 25.8152V9.32414C17.7142 8.7545 17.9935 8.21986 18.4638 7.89844L28.5073 17.5697Z" fill="#2196F3"/>
<path d="M32.0217 14.1915L28.5074 17.5696L18.4639 7.8984C18.5017 7.86907 18.5411 7.84179 18.5819 7.81667C19.1127 7.49495 19.7757 7.48457 20.3164 7.78943L32.0217 14.1915Z" fill="#4CAF50"/>
<path d="M36.2806 17.5695C36.2872 18.2126 35.9377 18.8066 35.3725 19.1133L32.0217 20.9476L28.5073 17.5695L32.0217 14.1914L35.3725 16.0257C35.9377 16.3325 36.2872 16.9265 36.2806 17.5695Z" fill="#F0BB1F"/>
<path d="M32.0217 20.9477L20.3164 27.3498C19.7745 27.6499 19.114 27.6395 18.5819 27.3225C18.5411 27.2974 18.5017 27.2701 18.4639 27.2408L28.5074 17.5696L32.0217 20.9477Z" fill="#F15A2B"/>
<path d="M46.84 10.6079C46.6853 10.2825 46.4613 10.0319 46.168 9.85587C45.8747 9.67454 45.5333 9.58387 45.144 9.58387C44.7547 9.58387 44.4027 9.67454 44.088 9.85587C43.7787 10.0319 43.5333 10.2879 43.352 10.6239C43.176 10.9545 43.088 11.3385 43.088 11.7759C43.088 12.2132 43.176 12.5972 43.352 12.9279C43.5333 13.2585 43.7787 13.5145 44.088 13.6959C44.4027 13.8719 44.7547 13.9599 45.144 13.9599C45.688 13.9599 46.136 13.7972 46.488 13.4719C46.84 13.1465 47.0453 12.7065 47.104 12.1519H44.88V11.5599H47.88V12.1199C47.8373 12.5785 47.6933 12.9999 47.448 13.3839C47.2027 13.7625 46.88 14.0639 46.48 14.2879C46.08 14.5065 45.6347 14.6159 45.144 14.6159C44.6267 14.6159 44.1547 14.4959 43.728 14.2559C43.3013 14.0105 42.9627 13.6719 42.712 13.2399C42.4667 12.8079 42.344 12.3199 42.344 11.7759C42.344 11.2319 42.4667 10.7439 42.712 10.3119C42.9627 9.87454 43.3013 9.53587 43.728 9.29587C44.1547 9.05054 44.6267 8.92787 45.144 8.92787C45.736 8.92787 46.2587 9.07454 46.712 9.36787C47.1707 9.6612 47.504 10.0745 47.712 10.6079H46.84ZM49.5706 9.58387V11.4479H51.6026V12.0479H49.5706V13.9679H51.8426V14.5679H48.8426V8.98387H51.8426V9.58387H49.5706ZM56.3761 8.99187V9.58387H54.8561V14.5679H54.1281V9.58387H52.6001V8.99187H56.3761ZM60.1331 8.99187V14.5679H59.4051V8.99187H60.1331ZM64.8058 8.99187V9.58387H63.2858V14.5679H62.5578V9.58387H61.0298V8.99187H64.8058ZM45.144 23.6239C44.6267 23.6239 44.1547 23.5039 43.728 23.2639C43.3013 23.0185 42.9627 22.6799 42.712 22.2479C42.4667 21.8105 42.344 21.3199 42.344 20.7759C42.344 20.2319 42.4667 19.7439 42.712 19.3119C42.9627 18.8745 43.3013 18.5359 43.728 18.2959C44.1547 18.0505 44.6267 17.9279 45.144 17.9279C45.6667 17.9279 46.1413 18.0505 46.568 18.2959C46.9947 18.5359 47.3307 18.8719 47.576 19.3039C47.8213 19.7359 47.944 20.2265 47.944 20.7759C47.944 21.3252 47.8213 21.8159 47.576 22.2479C47.3307 22.6799 46.9947 23.0185 46.568 23.2639C46.1413 23.5039 45.6667 23.6239 45.144 23.6239ZM45.144 22.9919C45.5333 22.9919 45.8827 22.9012 46.192 22.7199C46.5067 22.5385 46.752 22.2799 46.928 21.9439C47.1093 21.6079 47.2 21.2185 47.2 20.7759C47.2 20.3279 47.1093 19.9385 46.928 19.6079C46.752 19.2719 46.5093 19.0132 46.2 18.8319C45.8907 18.6505 45.5387 18.5599 45.144 18.5599C44.7493 18.5599 44.3973 18.6505 44.088 18.8319C43.7787 19.0132 43.5333 19.2719 43.352 19.6079C43.176 19.9385 43.088 20.3279 43.088 20.7759C43.088 21.2185 43.176 21.6079 43.352 21.9439C43.5333 22.2799 43.7787 22.5385 44.088 22.7199C44.4027 22.9012 44.7547 22.9919 45.144 22.9919ZM53.2891 23.5679H52.5611L49.6331 19.1279V23.5679H48.9051V17.9839H49.6331L52.5611 22.4159V17.9839H53.2891V23.5679Z" fill="white"/>
<path d="M46.84 20.6079C46.6853 20.2825 46.4613 20.0319 46.168 19.8559C45.8747 19.6745 45.5333 19.5839 45.144 19.5839C44.7547 19.5839 44.4027 19.6745 44.088 19.8559C43.7787 20.0319 43.5333 20.2879 43.352 20.6239C43.176 20.9545 43.088 21.3385 43.088 21.7759C43.088 22.2132 43.176 22.5972 43.352 22.9279C43.5333 23.2585 43.7787 23.5145 44.088 23.6959C44.4027 23.8719 44.7547 23.9599 45.144 23.9599C45.688 23.9599 46.136 23.7972 46.488 23.4719C46.84 23.1465 47.0453 22.7065 47.104 22.1519H44.88V21.5599H47.88V22.1199C47.8373 22.5785 47.6933 22.9999 47.448 23.3839C47.2027 23.7625 46.88 24.0639 46.48 24.2879C46.08 24.5065 45.6347 24.6159 45.144 24.6159C44.6267 24.6159 44.1547 24.4959 43.728 24.2559C43.3013 24.0105 42.9627 23.6719 42.712 23.2399C42.4667 22.8079 42.344 22.3199 42.344 21.7759C42.344 21.2319 42.4667 20.7439 42.712 20.3119C42.9627 19.8745 43.3013 19.5359 43.728 19.2959C44.1547 19.0505 44.6267 18.9279 45.144 18.9279C45.736 18.9279 46.2587 19.0745 46.712 19.3679C47.1707 19.6612 47.504 20.0745 47.712 20.6079H46.84ZM51.3706 24.6239C50.8532 24.6239 50.3812 24.5039 49.9546 24.2639C49.5279 24.0185 49.1892 23.6799 48.9386 23.2479C48.6932 22.8105 48.5706 22.3199 48.5706 21.7759C48.5706 21.2319 48.6932 20.7439 48.9386 20.3119C49.1892 19.8745 49.5279 19.5359 49.9546 19.2959C50.3812 19.0505 50.8532 18.9279 51.3706 18.9279C51.8932 18.9279 52.3679 19.0505 52.7946 19.2959C53.2212 19.5359 53.5572 19.8719 53.8026 20.3039C54.0479 20.7359 54.1706 21.2265 54.1706 21.7759C54.1706 22.3252 54.0479 22.8159 53.8026 23.2479C53.5572 23.6799 53.2212 24.0185 52.7946 24.2639C52.3679 24.5039 51.8932 24.6239 51.3706 24.6239ZM51.3706 23.9919C51.7599 23.9919 52.1092 23.9012 52.4186 23.7199C52.7332 23.5385 52.9786 23.2799 53.1546 22.9439C53.3359 22.6079 53.4266 22.2185 53.4266 21.7759C53.4266 21.3279 53.3359 20.9385 53.1546 20.6079C52.9786 20.2719 52.7359 20.0132 52.4266 19.8319C52.1172 19.6505 51.7652 19.5599 51.3706 19.5599C50.9759 19.5599 50.6239 19.6505 50.3146 19.8319C50.0052 20.0132 49.7599 20.2719 49.5786 20.6079C49.4026 20.9385 49.3146 21.3279 49.3146 21.7759C49.3146 22.2185 49.4026 22.6079 49.5786 22.9439C49.7599 23.2799 50.0052 23.5385 50.3146 23.7199C50.6292 23.9012 50.9812 23.9919 51.3706 23.9919ZM57.6596 24.6239C57.1423 24.6239 56.6703 24.5039 56.2436 24.2639C55.817 24.0185 55.4783 23.6799 55.2276 23.2479C54.9823 22.8105 54.8596 22.3199 54.8596 21.7759C54.8596 21.2319 54.9823 20.7439 55.2276 20.3119C55.4783 19.8745 55.817 19.5359 56.2436 19.2959C56.6703 19.0505 57.1423 18.9279 57.6596 18.9279C58.1823 18.9279 58.657 19.0505 59.0836 19.2959C59.5103 19.5359 59.8463 19.8719 60.0916 20.3039C60.337 20.7359 60.4596 21.2265 60.4596 21.7759C60.4596 22.3252 60.337 22.8159 60.0916 23.2479C59.8463 23.6799 59.5103 24.0185 59.0836 24.2639C58.657 24.5039 58.1823 24.6239 57.6596 24.6239ZM57.6596 23.9919C58.049 23.9919 58.3983 23.9012 58.7076 23.7199C59.0223 23.5385 59.2676 23.2799 59.4436 22.9439C59.625 22.6079 59.7156 22.2185 59.7156 21.7759C59.7156 21.3279 59.625 20.9385 59.4436 20.6079C59.2676 20.2719 59.025 20.0132 58.7156 19.8319C58.4063 19.6505 58.0543 19.5599 57.6596 19.5599C57.265 19.5599 56.913 19.6505 56.6036 19.8319C56.2943 20.0132 56.049 20.2719 55.8676 20.6079C55.6916 20.9385 55.6036 21.3279 55.6036 21.7759C55.6036 22.2185 55.6916 22.6079 55.8676 22.9439C56.049 23.2799 56.2943 23.5385 56.6036 23.7199C56.9183 23.9012 57.2703 23.9919 57.6596 23.9919ZM65.6447 20.6079C65.49 20.2825 65.266 20.0319 64.9727 19.8559C64.6794 19.6745 64.338 19.5839 63.9487 19.5839C63.5594 19.5839 63.2074 19.6745 62.8927 19.8559C62.5834 20.0319 62.338 20.2879 62.1567 20.6239C61.9807 20.9545 61.8927 21.3385 61.8927 21.7759C61.8927 22.2132 61.9807 22.5972 62.1567 22.9279C62.338 23.2585 62.5834 23.5145 62.8927 23.6959C63.2074 23.8719 63.5594 23.9599 63.9487 23.9599C64.4927 23.9599 64.9407 23.7972 65.2927 23.4719C65.6447 23.1465 65.85 22.7065 65.9087 22.1519H63.6847V21.5599H66.6847V22.1199C66.642 22.5785 66.498 22.9999 66.2527 23.3839C66.0074 23.7625 65.6847 24.0639 65.2847 24.2879C64.8847 24.5065 64.4394 24.6159 63.9487 24.6159C63.4314 24.6159 62.9594 24.4959 62.5327 24.2559C62.106 24.0105 61.7674 23.6719 61.5167 23.2399C61.2714 22.8079 61.1487 22.3199 61.1487 21.7759C61.1487 21.2319 61.2714 20.7439 61.5167 20.3119C61.7674 19.8745 62.106 19.5359 62.5327 19.2959C62.9594 19.0505 63.4314 18.9279 63.9487 18.9279C64.5407 18.9279 65.0634 19.0745 65.5167 19.3679C65.9754 19.6612 66.3087 20.0745 66.5167 20.6079H65.6447ZM68.3753 23.9759H70.3273V24.5679H67.6473V18.9919H68.3753V23.9759ZM71.8284 19.5839V21.4479H73.8604V22.0479H71.8284V23.9679H74.1004V24.5679H71.1004V18.9839H74.1004V19.5839H71.8284ZM81.0628 20.6239C81.0628 21.0879 80.9028 21.4745 80.5828 21.7839C80.2681 22.0879 79.7854 22.2399 79.1348 22.2399H78.0628V24.5679H77.3348V18.9919H79.1348C79.7641 18.9919 80.2414 19.1439 80.5668 19.4479C80.8974 19.7519 81.0628 20.1439 81.0628 20.6239ZM79.1348 21.6399C79.5401 21.6399 79.8388 21.5519 80.0308 21.3759C80.2228 21.1999 80.3188 20.9492 80.3188 20.6239C80.3188 19.9359 79.9241 19.5919 79.1348 19.5919H78.0628V21.6399H79.1348ZM82.6956 23.9759H84.6476V24.5679H81.9676V18.9919H82.6956V23.9759ZM88.7167 23.3279H86.2847L85.8367 24.5679H85.0687L87.0847 19.0239H87.9247L89.9327 24.5679H89.1647L88.7167 23.3279ZM88.5087 22.7359L87.5007 19.9199L86.4927 22.7359H88.5087ZM94.7153 18.9919L92.8993 22.4639V24.5679H92.1713V22.4639L90.3473 18.9919H91.1553L92.5313 21.8159L93.9073 18.9919H94.7153Z" fill="white"/>
</svg>
