<svg width="100" height="38" viewBox="0 0 100 38" fill="none" xmlns="http://www.w3.org/2000/svg">
<path d="M0 18.0679C0 8.40289 7.83502 0.567871 17.5 0.567871H82.5C92.165 0.567871 100 8.40289 100 18.0679C100 27.7329 92.165 35.5679 82.5 35.5679H17.5C7.83502 35.5679 0 27.7329 0 18.0679Z" fill="#080809"/>
<path d="M21.7893 24.5677C19.408 24.554 17.4382 19.693 17.4382 17.2174C17.4382 13.1735 20.4718 12.2882 21.641 12.2882C22.1678 12.2882 22.7304 12.4951 23.2266 12.6782C23.5736 12.8059 23.9325 12.9378 24.1321 12.9378C24.2516 12.9378 24.5331 12.8256 24.7817 12.7272C25.3118 12.5162 25.9714 12.2539 26.7395 12.2539H26.7441C27.3176 12.2539 29.0567 12.3798 30.1022 13.9499L30.3471 14.3179L29.9947 14.5839C29.4911 14.9638 28.5724 15.6569 28.5724 17.0297C28.5724 18.6557 29.6129 19.281 30.1128 19.5818C30.3334 19.7145 30.5618 19.8514 30.5618 20.1508C30.5618 20.3462 29.0018 24.5435 26.7363 24.5435C26.182 24.5435 25.7901 24.3768 25.4445 24.2299C25.0948 24.0811 24.7931 23.953 24.2946 23.953C24.0419 23.953 23.7224 24.0724 23.3841 24.1993C22.9218 24.3718 22.3985 24.5677 21.8048 24.5677H21.7893Z" fill="white"/>
<path d="M26.9795 8.56787C27.0385 10.6952 25.5171 12.1711 23.9975 12.0786C23.7471 10.3808 25.5169 8.56787 26.9795 8.56787Z" fill="white"/>
<path d="M38.934 12.6379H37.11L36.774 13.5679H36.198L37.71 9.40987H38.34L39.846 13.5679H39.27L38.934 12.6379ZM38.778 12.1939L38.022 10.0819L37.266 12.1939H38.778ZM41.729 13.0639L42.749 10.2799H43.331L42.041 13.5679H41.405L40.115 10.2799H40.703L41.729 13.0639ZM43.6643 11.9119C43.6643 11.5759 43.7323 11.2819 43.8683 11.0299C44.0043 10.7739 44.1903 10.5759 44.4263 10.4359C44.6663 10.2959 44.9323 10.2259 45.2243 10.2259C45.5123 10.2259 45.7623 10.2879 45.9743 10.4119C46.1863 10.5359 46.3443 10.6919 46.4483 10.8799V10.2799H47.0003V13.5679H46.4483V12.9559C46.3403 13.1479 46.1783 13.3079 45.9623 13.4359C45.7503 13.5599 45.5023 13.6219 45.2183 13.6219C44.9263 13.6219 44.6623 13.5499 44.4263 13.4059C44.1903 13.2619 44.0043 13.0599 43.8683 12.7999C43.7323 12.5399 43.6643 12.2439 43.6643 11.9119ZM46.4483 11.9179C46.4483 11.6699 46.3983 11.4539 46.2983 11.2699C46.1983 11.0859 46.0623 10.9459 45.8903 10.8499C45.7223 10.7499 45.5363 10.6999 45.3323 10.6999C45.1283 10.6999 44.9423 10.7479 44.7743 10.8439C44.6063 10.9399 44.4723 11.0799 44.3723 11.2639C44.2723 11.4479 44.2223 11.6639 44.2223 11.9119C44.2223 12.1639 44.2723 12.3839 44.3723 12.5719C44.4723 12.7559 44.6063 12.8979 44.7743 12.9979C44.9423 13.0939 45.1283 13.1419 45.3323 13.1419C45.5363 13.1419 45.7223 13.0939 45.8903 12.9979C46.0623 12.8979 46.1983 12.7559 46.2983 12.5719C46.3983 12.3839 46.4483 12.1659 46.4483 11.9179ZM48.4689 9.12787V13.5679H47.9229V9.12787H48.4689ZM49.6815 9.74587C49.5775 9.74587 49.4895 9.70987 49.4175 9.63787C49.3455 9.56587 49.3095 9.47787 49.3095 9.37387C49.3095 9.26987 49.3455 9.18187 49.4175 9.10987C49.4895 9.03787 49.5775 9.00187 49.6815 9.00187C49.7815 9.00187 49.8655 9.03787 49.9335 9.10987C50.0055 9.18187 50.0415 9.26987 50.0415 9.37387C50.0415 9.47787 50.0055 9.56587 49.9335 9.63787C49.8655 9.70987 49.7815 9.74587 49.6815 9.74587ZM49.9455 10.2799V13.5679H49.3995V10.2799H49.9455ZM51.4221 10.8919C51.5341 10.6959 51.6981 10.5359 51.9141 10.4119C52.1301 10.2879 52.3761 10.2259 52.6521 10.2259C52.9481 10.2259 53.2141 10.2959 53.4501 10.4359C53.6861 10.5759 53.8721 10.7739 54.0081 11.0299C54.1441 11.2819 54.2121 11.5759 54.2121 11.9119C54.2121 12.2439 54.1441 12.5399 54.0081 12.7999C53.8721 13.0599 53.6841 13.2619 53.4441 13.4059C53.2081 13.5499 52.9441 13.6219 52.6521 13.6219C52.3681 13.6219 52.1181 13.5599 51.9021 13.4359C51.6901 13.3119 51.5301 13.1539 51.4221 12.9619V13.5679H50.8761V9.12787H51.4221V10.8919ZM53.6541 11.9119C53.6541 11.6639 53.6041 11.4479 53.5041 11.2639C53.4041 11.0799 53.2681 10.9399 53.0961 10.8439C52.9281 10.7479 52.7421 10.6999 52.5381 10.6999C52.3381 10.6999 52.1521 10.7499 51.9801 10.8499C51.8121 10.9459 51.6761 11.0879 51.5721 11.2759C51.4721 11.4599 51.4221 11.6739 51.4221 11.9179C51.4221 12.1659 51.4721 12.3839 51.5721 12.5719C51.6761 12.7559 51.8121 12.8979 51.9801 12.9979C52.1521 13.0939 52.3381 13.1419 52.5381 13.1419C52.7421 13.1419 52.9281 13.0939 53.0961 12.9979C53.2681 12.8979 53.4041 12.7559 53.5041 12.5719C53.6041 12.3839 53.6541 12.1639 53.6541 11.9119ZM55.4768 9.12787V13.5679H54.9308V9.12787H55.4768ZM59.4073 11.7979C59.4073 11.9019 59.4013 12.0119 59.3893 12.1279H56.7613C56.7813 12.4519 56.8913 12.7059 57.0913 12.8899C57.2953 13.0699 57.5413 13.1599 57.8293 13.1599C58.0653 13.1599 58.2613 13.1059 58.4173 12.9979C58.5773 12.8859 58.6893 12.7379 58.7533 12.5539H59.3413C59.2533 12.8699 59.0773 13.1279 58.8133 13.3279C58.5493 13.5239 58.2213 13.6219 57.8293 13.6219C57.5173 13.6219 57.2373 13.5519 56.9893 13.4119C56.7453 13.2719 56.5533 13.0739 56.4133 12.8179C56.2733 12.5579 56.2033 12.2579 56.2033 11.9179C56.2033 11.5779 56.2713 11.2799 56.4073 11.0239C56.5433 10.7679 56.7333 10.5719 56.9773 10.4359C57.2253 10.2959 57.5093 10.2259 57.8293 10.2259C58.1413 10.2259 58.4173 10.2939 58.6573 10.4299C58.8973 10.5659 59.0813 10.7539 59.2093 10.9939C59.3413 11.2299 59.4073 11.4979 59.4073 11.7979ZM58.8433 11.6839C58.8433 11.4759 58.7973 11.2979 58.7053 11.1499C58.6133 10.9979 58.4873 10.8839 58.3273 10.8079C58.1713 10.7279 57.9973 10.6879 57.8053 10.6879C57.5293 10.6879 57.2933 10.7759 57.0973 10.9519C56.9053 11.1279 56.7953 11.3719 56.7673 11.6839H58.8433ZM63.1616 13.6219C62.8536 13.6219 62.5736 13.5519 62.3216 13.4119C62.0736 13.2719 61.8776 13.0739 61.7336 12.8179C61.5936 12.5579 61.5236 12.2579 61.5236 11.9179C61.5236 11.5819 61.5956 11.2859 61.7396 11.0299C61.8876 10.7699 62.0876 10.5719 62.3396 10.4359C62.5916 10.2959 62.8736 10.2259 63.1856 10.2259C63.4976 10.2259 63.7796 10.2959 64.0316 10.4359C64.2836 10.5719 64.4816 10.7679 64.6256 11.0239C64.7736 11.2799 64.8476 11.5779 64.8476 11.9179C64.8476 12.2579 64.7716 12.5579 64.6196 12.8179C64.4716 13.0739 64.2696 13.2719 64.0136 13.4119C63.7576 13.5519 63.4736 13.6219 63.1616 13.6219ZM63.1616 13.1419C63.3576 13.1419 63.5416 13.0959 63.7136 13.0039C63.8856 12.9119 64.0236 12.7739 64.1276 12.5899C64.2356 12.4059 64.2896 12.1819 64.2896 11.9179C64.2896 11.6539 64.2376 11.4299 64.1336 11.2459C64.0296 11.0619 63.8936 10.9259 63.7256 10.8379C63.5576 10.7459 63.3756 10.6999 63.1796 10.6999C62.9796 10.6999 62.7956 10.7459 62.6276 10.8379C62.4636 10.9259 62.3316 11.0619 62.2316 11.2459C62.1316 11.4299 62.0816 11.6539 62.0816 11.9179C62.0816 12.1859 62.1296 12.4119 62.2256 12.5959C62.3256 12.7799 62.4576 12.9179 62.6216 13.0099C62.7856 13.0979 62.9656 13.1419 63.1616 13.1419ZM67.1675 10.2199C67.5675 10.2199 67.8915 10.3419 68.1395 10.5859C68.3875 10.8259 68.5115 11.1739 68.5115 11.6299V13.5679H67.9715V11.7079C67.9715 11.3799 67.8895 11.1299 67.7255 10.9579C67.5615 10.7819 67.3375 10.6939 67.0535 10.6939C66.7655 10.6939 66.5355 10.7839 66.3635 10.9639C66.1955 11.1439 66.1115 11.4059 66.1115 11.7499V13.5679H65.5655V10.2799H66.1115V10.7479C66.2195 10.5799 66.3655 10.4499 66.5495 10.3579C66.7375 10.2659 66.9435 10.2199 67.1675 10.2199ZM37.128 17.7299V19.6679C37.128 19.8279 37.162 19.9419 37.23 20.0099C37.298 20.0739 37.416 20.1059 37.584 20.1059H37.986V20.5679H37.494C37.19 20.5679 36.962 20.4979 36.81 20.3579C36.658 20.2179 36.582 19.9879 36.582 19.6679V17.7299H36.156V17.2799H36.582V16.4519H37.128V17.2799H37.986V17.7299H37.128ZM40.2795 17.2199C40.5275 17.2199 40.7515 17.2739 40.9515 17.3819C41.1515 17.4859 41.3075 17.6439 41.4195 17.8559C41.5355 18.0679 41.5935 18.3259 41.5935 18.6299V20.5679H41.0535V18.7079C41.0535 18.3799 40.9715 18.1299 40.8075 17.9579C40.6435 17.7819 40.4195 17.6939 40.1355 17.6939C39.8475 17.6939 39.6175 17.7839 39.4455 17.9639C39.2775 18.1439 39.1935 18.4059 39.1935 18.7499V20.5679H38.6475V16.1279H39.1935V17.7479C39.3015 17.5799 39.4495 17.4499 39.6375 17.3579C39.8295 17.2659 40.0435 17.2199 40.2795 17.2199ZM45.4854 18.7979C45.4854 18.9019 45.4794 19.0119 45.4674 19.1279H42.8394C42.8594 19.4519 42.9694 19.7059 43.1694 19.8899C43.3734 20.0699 43.6194 20.1599 43.9074 20.1599C44.1434 20.1599 44.3394 20.1059 44.4954 19.9979C44.6554 19.8859 44.7674 19.7379 44.8314 19.5539H45.4194C45.3314 19.8699 45.1554 20.1279 44.8914 20.3279C44.6274 20.5239 44.2994 20.6219 43.9074 20.6219C43.5954 20.6219 43.3154 20.5519 43.0674 20.4119C42.8234 20.2719 42.6314 20.0739 42.4914 19.8179C42.3514 19.5579 42.2814 19.2579 42.2814 18.9179C42.2814 18.5779 42.3494 18.2799 42.4854 18.0239C42.6214 17.7679 42.8114 17.5719 43.0554 17.4359C43.3034 17.2959 43.5874 17.2259 43.9074 17.2259C44.2194 17.2259 44.4954 17.2939 44.7354 17.4299C44.9754 17.5659 45.1594 17.7539 45.2874 17.9939C45.4194 18.2299 45.4854 18.4979 45.4854 18.7979ZM44.9214 18.6839C44.9214 18.4759 44.8754 18.2979 44.7834 18.1499C44.6914 17.9979 44.5654 17.8839 44.4054 17.8079C44.2494 17.7279 44.0754 17.6879 43.8834 17.6879C43.6074 17.6879 43.3714 17.7759 43.1754 17.9519C42.9834 18.1279 42.8734 18.3719 42.8454 18.6839H44.9214Z" fill="white"/>
<path d="M40.89 24.0179H37.85L37.29 25.5679H36.33L38.85 18.6379H39.9L42.41 25.5679H41.45L40.89 24.0179ZM40.63 23.2779L39.37 19.7579L38.11 23.2779H40.63ZM44.4183 21.0979C44.5983 20.7845 44.8649 20.5245 45.2183 20.3179C45.5783 20.1045 45.9949 19.9979 46.4683 19.9979C46.9549 19.9979 47.3949 20.1145 47.7883 20.3479C48.1883 20.5812 48.5016 20.9112 48.7283 21.3379C48.9549 21.7579 49.0683 22.2479 49.0683 22.8079C49.0683 23.3612 48.9549 23.8545 48.7283 24.2879C48.5016 24.7212 48.1883 25.0579 47.7883 25.2979C47.3949 25.5379 46.9549 25.6579 46.4683 25.6579C46.0016 25.6579 45.5883 25.5545 45.2283 25.3479C44.8749 25.1345 44.6049 24.8712 44.4183 24.5579V28.1679H43.5083V20.0879H44.4183V21.0979ZM48.1383 22.8079C48.1383 22.3945 48.0549 22.0345 47.8883 21.7279C47.7216 21.4212 47.4949 21.1879 47.2083 21.0279C46.9283 20.8679 46.6183 20.7879 46.2783 20.7879C45.9449 20.7879 45.6349 20.8712 45.3483 21.0379C45.0683 21.1979 44.8416 21.4345 44.6683 21.7479C44.5016 22.0545 44.4183 22.4112 44.4183 22.8179C44.4183 23.2312 44.5016 23.5945 44.6683 23.9079C44.8416 24.2145 45.0683 24.4512 45.3483 24.6179C45.6349 24.7779 45.9449 24.8579 46.2783 24.8579C46.6183 24.8579 46.9283 24.7779 47.2083 24.6179C47.4949 24.4512 47.7216 24.2145 47.8883 23.9079C48.0549 23.5945 48.1383 23.2279 48.1383 22.8079ZM51.1761 21.0979C51.3561 20.7845 51.6228 20.5245 51.9761 20.3179C52.3361 20.1045 52.7528 19.9979 53.2261 19.9979C53.7128 19.9979 54.1528 20.1145 54.5461 20.3479C54.9461 20.5812 55.2594 20.9112 55.4861 21.3379C55.7128 21.7579 55.8261 22.2479 55.8261 22.8079C55.8261 23.3612 55.7128 23.8545 55.4861 24.2879C55.2594 24.7212 54.9461 25.0579 54.5461 25.2979C54.1528 25.5379 53.7128 25.6579 53.2261 25.6579C52.7594 25.6579 52.3461 25.5545 51.9861 25.3479C51.6328 25.1345 51.3628 24.8712 51.1761 24.5579V28.1679H50.2661V20.0879H51.1761V21.0979ZM54.8961 22.8079C54.8961 22.3945 54.8128 22.0345 54.6461 21.7279C54.4794 21.4212 54.2528 21.1879 53.9661 21.0279C53.6861 20.8679 53.3761 20.7879 53.0361 20.7879C52.7028 20.7879 52.3928 20.8712 52.1061 21.0379C51.8261 21.1979 51.5994 21.4345 51.4261 21.7479C51.2594 22.0545 51.1761 22.4112 51.1761 22.8179C51.1761 23.2312 51.2594 23.5945 51.4261 23.9079C51.5994 24.2145 51.8261 24.4512 52.1061 24.6179C52.3928 24.7779 52.7028 24.8579 53.0361 24.8579C53.3761 24.8579 53.6861 24.7779 53.9661 24.6179C54.2528 24.4512 54.4794 24.2145 54.6461 23.9079C54.8128 23.5945 54.8961 23.2279 54.8961 22.8079ZM57.9339 18.1679V25.5679H57.0239V18.1679H57.9339ZM64.4848 22.6179C64.4848 22.7912 64.4748 22.9745 64.4548 23.1679H60.0748C60.1082 23.7079 60.2915 24.1312 60.6248 24.4379C60.9648 24.7379 61.3748 24.8879 61.8548 24.8879C62.2482 24.8879 62.5748 24.7979 62.8348 24.6179C63.1015 24.4312 63.2882 24.1845 63.3948 23.8779H64.3748C64.2282 24.4045 63.9348 24.8345 63.4948 25.1679C63.0548 25.4945 62.5082 25.6579 61.8548 25.6579C61.3348 25.6579 60.8682 25.5412 60.4548 25.3079C60.0482 25.0745 59.7282 24.7445 59.4948 24.3179C59.2615 23.8845 59.1448 23.3845 59.1448 22.8179C59.1448 22.2512 59.2582 21.7545 59.4848 21.3279C59.7115 20.9012 60.0282 20.5745 60.4348 20.3479C60.8482 20.1145 61.3215 19.9979 61.8548 19.9979C62.3748 19.9979 62.8348 20.1112 63.2348 20.3379C63.6348 20.5645 63.9415 20.8779 64.1548 21.2779C64.3748 21.6712 64.4848 22.1179 64.4848 22.6179ZM63.5448 22.4279C63.5448 22.0812 63.4682 21.7845 63.3148 21.5379C63.1615 21.2845 62.9515 21.0945 62.6848 20.9679C62.4248 20.8345 62.1348 20.7679 61.8148 20.7679C61.3548 20.7679 60.9615 20.9145 60.6348 21.2079C60.3148 21.5012 60.1315 21.9079 60.0848 22.4279H63.5448ZM38.98 37.6379C38.52 37.6379 38.1067 37.5579 37.74 37.3979C37.38 37.2312 37.0967 37.0045 36.89 36.7179C36.6833 36.4245 36.5767 36.0879 36.57 35.7079H37.54C37.5733 36.0345 37.7067 36.3112 37.94 36.5379C38.18 36.7579 38.5267 36.8679 38.98 36.8679C39.4133 36.8679 39.7533 36.7612 40 36.5479C40.2533 36.3279 40.38 36.0479 40.38 35.7079C40.38 35.4412 40.3067 35.2245 40.16 35.0579C40.0133 34.8912 39.83 34.7645 39.61 34.6779C39.39 34.5912 39.0933 34.4979 38.72 34.3979C38.26 34.2779 37.89 34.1579 37.61 34.0379C37.3367 33.9179 37.1 33.7312 36.9 33.4779C36.7067 33.2179 36.61 32.8712 36.61 32.4379C36.61 32.0579 36.7067 31.7212 36.9 31.4279C37.0933 31.1345 37.3633 30.9079 37.71 30.7479C38.0633 30.5879 38.4667 30.5079 38.92 30.5079C39.5733 30.5079 40.1067 30.6712 40.52 30.9979C40.94 31.3245 41.1767 31.7579 41.23 32.2979H40.23C40.1967 32.0312 40.0567 31.7979 39.81 31.5979C39.5633 31.3912 39.2367 31.2879 38.83 31.2879C38.45 31.2879 38.14 31.3879 37.9 31.5879C37.66 31.7812 37.54 32.0545 37.54 32.4079C37.54 32.6612 37.61 32.8679 37.75 33.0279C37.8967 33.1879 38.0733 33.3112 38.28 33.3979C38.4933 33.4779 38.79 33.5712 39.17 33.6779C39.63 33.8045 40 33.9312 40.28 34.0579C40.56 34.1779 40.8 34.3679 41 34.6279C41.2 34.8812 41.3 35.2279 41.3 35.6679C41.3 36.0079 41.21 36.3279 41.03 36.6279C40.85 36.9279 40.5833 37.1712 40.23 37.3579C39.8767 37.5445 39.46 37.6379 38.98 37.6379ZM43.7491 32.8379V36.0679C43.7491 36.3345 43.8058 36.5245 43.9191 36.6379C44.0325 36.7445 44.2291 36.7979 44.5091 36.7979H45.1791V37.5679H44.3591C43.8525 37.5679 43.4725 37.4512 43.2191 37.2179C42.9658 36.9845 42.8391 36.6012 42.8391 36.0679V32.8379H42.1291V32.0879H42.8391V30.7079H43.7491V32.0879H45.1791V32.8379H43.7491ZM48.6717 37.6579C48.1584 37.6579 47.6917 37.5412 47.2717 37.3079C46.8584 37.0745 46.5317 36.7445 46.2917 36.3179C46.0584 35.8845 45.9417 35.3845 45.9417 34.8179C45.9417 34.2579 46.0617 33.7645 46.3017 33.3379C46.5484 32.9045 46.8817 32.5745 47.3017 32.3479C47.7217 32.1145 48.1917 31.9979 48.7117 31.9979C49.2317 31.9979 49.7017 32.1145 50.1217 32.3479C50.5417 32.5745 50.8717 32.9012 51.1117 33.3279C51.3584 33.7545 51.4817 34.2512 51.4817 34.8179C51.4817 35.3845 51.3551 35.8845 51.1017 36.3179C50.8551 36.7445 50.5184 37.0745 50.0917 37.3079C49.6651 37.5412 49.1917 37.6579 48.6717 37.6579ZM48.6717 36.8579C48.9984 36.8579 49.3051 36.7812 49.5917 36.6279C49.8784 36.4745 50.1084 36.2445 50.2817 35.9379C50.4617 35.6312 50.5517 35.2579 50.5517 34.8179C50.5517 34.3779 50.4651 34.0045 50.2917 33.6979C50.1184 33.3912 49.8917 33.1645 49.6117 33.0179C49.3317 32.8645 49.0284 32.7879 48.7017 32.7879C48.3684 32.7879 48.0617 32.8645 47.7817 33.0179C47.5084 33.1645 47.2884 33.3912 47.1217 33.6979C46.9551 34.0045 46.8717 34.3779 46.8717 34.8179C46.8717 35.2645 46.9517 35.6412 47.1117 35.9479C47.2784 36.2545 47.4984 36.4845 47.7717 36.6379C48.0451 36.7845 48.3451 36.8579 48.6717 36.8579ZM53.5882 32.9779C53.7482 32.6645 53.9749 32.4212 54.2682 32.2479C54.5682 32.0745 54.9315 31.9879 55.3582 31.9879V32.9279H55.1182C54.0982 32.9279 53.5882 33.4812 53.5882 34.5879V37.5679H52.6782V32.0879H53.5882V32.9779ZM61.4087 34.6179C61.4087 34.7912 61.3987 34.9745 61.3787 35.1679H56.9987C57.032 35.7079 57.2153 36.1312 57.5487 36.4379C57.8887 36.7379 58.2987 36.8879 58.7787 36.8879C59.172 36.8879 59.4987 36.7979 59.7587 36.6179C60.0253 36.4312 60.212 36.1845 60.3187 35.8779H61.2987C61.152 36.4045 60.8587 36.8345 60.4187 37.1679C59.9787 37.4945 59.432 37.6579 58.7787 37.6579C58.2587 37.6579 57.792 37.5412 57.3787 37.3079C56.972 37.0745 56.652 36.7445 56.4187 36.3179C56.1853 35.8845 56.0687 35.3845 56.0687 34.8179C56.0687 34.2512 56.182 33.7545 56.4087 33.3279C56.6353 32.9012 56.952 32.5745 57.3587 32.3479C57.772 32.1145 58.2453 31.9979 58.7787 31.9979C59.2987 31.9979 59.7587 32.1112 60.1587 32.3379C60.5587 32.5645 60.8653 32.8779 61.0787 33.2779C61.2987 33.6712 61.4087 34.1179 61.4087 34.6179ZM60.4687 34.4279C60.4687 34.0812 60.392 33.7845 60.2387 33.5379C60.0853 33.2845 59.8753 33.0945 59.6087 32.9679C59.3487 32.8345 59.0587 32.7679 58.7387 32.7679C58.2787 32.7679 57.8853 32.9145 57.5587 33.2079C57.2387 33.5012 57.0553 33.9079 57.0087 34.4279H60.4687Z" fill="white"/>
</svg>
