<svg width="484" height="416" viewBox="0 0 484 416" fill="none" xmlns="http://www.w3.org/2000/svg">
<path d="M-30.94 18.141H-30.44V17.641H-30.94V18.141ZM-30.94 42.801V43.301H-30.44V42.801H-30.94ZM-64.42 42.801V42.301H-64.92V42.801H-64.42ZM-64.42 144.501V145.001H-63.92V144.501H-64.42ZM-95.2 144.501H-95.7V145.001H-95.2V144.501ZM-95.2 42.801H-94.7V42.301H-95.2V42.801ZM-128.68 42.801H-129.18V43.301H-128.68V42.801ZM-128.68 18.141V17.641H-129.18V18.141H-128.68ZM-31.44 18.141V42.801H-30.44V18.141H-31.44ZM-30.94 42.301H-64.42V43.301H-30.94V42.301ZM-64.92 42.801V144.501H-63.92V42.801H-64.92ZM-64.42 144.001H-95.2V145.001H-64.42V144.001ZM-94.7 144.501V42.801H-95.7V144.501H-94.7ZM-95.2 42.301H-128.68V43.301H-95.2V42.301ZM-128.18 42.801V18.141H-129.18V42.801H-128.18ZM-128.68 18.641H-30.94V17.641H-128.68V18.641ZM73.9677 54.501L73.5972 54.8367L73.5998 54.8396L73.9677 54.501ZM84.4077 144.501V145.001H84.9077V144.501H84.4077ZM53.8077 144.501H53.3077V145.001H53.8077V144.501ZM48.5877 74.301L48.2225 74.6425L48.5877 74.301ZM20.5077 74.301L20.8728 74.6425L20.5077 74.301ZM15.2877 144.501V145.001H15.7877V144.501H15.2877ZM-15.4923 144.501H-15.9923V145.001H-15.4923V144.501ZM-15.4923 11.301V10.801H-15.9923V11.301H-15.4923ZM15.2877 11.301H15.7877V10.801H15.2877V11.301ZM15.2877 57.561H14.7877V59.1422L15.6967 57.8484L15.2877 57.561ZM28.0677 46.941L27.8481 46.4918L28.0677 46.941ZM46.2477 43.481C57.644 43.481 66.7431 47.2736 73.5972 54.8367L74.3382 54.1652C67.2722 46.3683 57.8913 42.481 46.2477 42.481V43.481ZM73.5998 54.8396C80.452 62.2826 83.9077 72.5881 83.9077 85.821H84.9077C84.9077 72.4138 81.4033 61.8394 74.3355 54.1623L73.5998 54.8396ZM83.9077 85.821V144.501H84.9077V85.821H83.9077ZM84.4077 144.001H53.8077V145.001H84.4077V144.001ZM54.3077 144.501V89.961H53.3077V144.501H54.3077ZM54.3077 89.961C54.3077 83.1557 52.5442 77.7985 48.9528 73.9594L48.2225 74.6425C51.5911 78.2435 53.3077 83.3262 53.3077 89.961H54.3077ZM48.9528 73.9594C45.3634 70.1224 40.5427 68.221 34.5477 68.221V69.221C40.3127 69.221 44.8519 71.0395 48.2225 74.6425L48.9528 73.9594ZM34.5477 68.221C28.5526 68.221 23.7319 70.1224 20.1425 73.9594L20.8728 74.6425C24.2434 71.0395 28.7827 69.221 34.5477 69.221V68.221ZM20.1425 73.9594C16.5511 77.7985 14.7877 83.1557 14.7877 89.961H15.7877C15.7877 83.3262 17.5042 78.2435 20.8728 74.6425L20.1425 73.9594ZM14.7877 89.961V144.501H15.7877V89.961H14.7877ZM15.2877 144.001H-15.4923V145.001H15.2877V144.001ZM-14.9923 144.501V11.301H-15.9923V144.501H-14.9923ZM-15.4923 11.801H15.2877V10.801H-15.4923V11.801ZM14.7877 11.301V57.561H15.7877V11.301H14.7877ZM15.6967 57.8484C18.7632 53.4847 22.9547 49.9972 28.2873 47.3902L27.8481 46.4918C22.3806 49.1648 18.0521 52.7573 14.8786 57.2735L15.6967 57.8484ZM28.2873 47.3902C33.6112 44.7874 39.5947 43.481 46.2477 43.481V42.481C39.4606 42.481 33.3241 43.8146 27.8481 46.4918L28.2873 47.3902ZM107.957 28.941L107.61 29.3009L107.616 29.3072L107.623 29.3133L107.957 28.941ZM107.957 5.18097L108.297 5.54736L108.297 5.54691L107.957 5.18097ZM134.237 5.18097L133.89 5.54089L133.896 5.54719L133.903 5.55325L134.237 5.18097ZM134.237 28.941L134.577 29.3074L134.577 29.3069L134.237 28.941ZM136.577 44.061H137.077V43.561H136.577V44.061ZM136.577 144.501V145.001H137.077V144.501H136.577ZM105.797 144.501H105.297V145.001H105.797V144.501ZM105.797 44.061V43.561H105.297V44.061H105.797ZM121.277 33.121C115.98 33.121 111.665 31.5938 108.29 28.5687L107.623 29.3133C111.209 32.5282 115.774 34.121 121.277 34.121V33.121ZM108.304 28.5811C105.042 25.4356 103.417 21.6056 103.417 17.061H102.417C102.417 21.8763 104.152 25.9664 107.61 29.3009L108.304 28.5811ZM103.417 17.061C103.417 12.3927 105.044 8.56788 108.297 5.54736L107.616 4.81457C104.149 8.03406 102.417 12.1293 102.417 17.061H103.417ZM108.297 5.54691C111.672 2.40488 115.985 0.820965 121.277 0.820965V-0.179035C115.769 -0.179035 111.201 1.47705 107.616 4.81502L108.297 5.54691ZM121.277 0.820965C126.446 0.820965 130.635 2.40276 133.89 5.54089L134.584 4.82104C131.118 1.47917 126.668 -0.179035 121.277 -0.179035V0.820965ZM133.903 5.55325C137.274 8.57553 138.957 12.3987 138.957 17.061H139.957C139.957 12.1233 138.159 8.02641 134.57 4.80868L133.903 5.55325ZM138.957 17.061C138.957 21.5997 137.276 25.4279 133.896 28.575L134.577 29.3069C138.157 25.9741 139.957 21.8823 139.957 17.061H138.957ZM133.896 28.5746C130.643 31.5957 126.451 33.121 121.277 33.121V34.121C126.662 34.121 131.11 32.5262 134.577 29.3074L133.896 28.5746ZM136.077 44.061V144.501H137.077V44.061H136.077ZM136.577 144.001H105.797V145.001H136.577V144.001ZM106.297 144.501V44.061H105.297V144.501H106.297ZM105.797 44.561H136.577V43.561H105.797V44.561ZM248.163 54.501L247.792 54.8368L247.798 54.8428L248.163 54.501ZM258.783 144.501V145.001H259.283V144.501H258.783ZM228.183 144.501H227.683V145.001H228.183V144.501ZM222.963 74.301L222.598 74.6425L222.963 74.301ZM194.883 74.301L195.248 74.6425L194.883 74.301ZM189.663 144.501V145.001H190.163V144.501H189.663ZM158.883 144.501H158.383V145.001H158.883V144.501ZM158.883 44.061V43.561H158.383V44.061H158.883ZM189.663 44.061H190.163V43.561H189.663V44.061ZM189.663 57.381H189.163V58.9622L190.072 57.6684L189.663 57.381ZM202.263 46.941L202.478 47.3923L202.486 47.3882L202.263 46.941ZM220.083 43.481C231.723 43.481 240.94 47.2759 247.792 54.8367L248.533 54.1652C241.465 46.366 231.963 42.481 220.083 42.481V43.481ZM247.798 54.8428C254.768 62.2859 258.283 72.5903 258.283 85.821H259.283C259.283 72.4116 255.717 61.8361 248.528 54.1592L247.798 54.8428ZM258.283 85.821V144.501H259.283V85.821H258.283ZM258.783 144.001H228.183V145.001H258.783V144.001ZM228.683 144.501V89.961H227.683V144.501H228.683ZM228.683 89.961C228.683 83.1557 226.919 77.7985 223.328 73.9594L222.598 74.6425C225.966 78.2435 227.683 83.3262 227.683 89.961H228.683ZM223.328 73.9594C219.738 70.1224 214.918 68.221 208.923 68.221V69.221C214.688 69.221 219.227 71.0395 222.598 74.6425L223.328 73.9594ZM208.923 68.221C202.928 68.221 198.107 70.1224 194.518 73.9594L195.248 74.6425C198.618 71.0395 203.158 69.221 208.923 69.221V68.221ZM194.518 73.9594C190.926 77.7985 189.163 83.1557 189.163 89.961H190.163C190.163 83.3262 191.879 78.2435 195.248 74.6425L194.518 73.9594ZM189.163 89.961V144.501H190.163V89.961H189.163ZM189.663 144.001H158.883V145.001H189.663V144.001ZM159.383 144.501V44.061H158.383V144.501H159.383ZM158.883 44.561H189.663V43.561H158.883V44.561ZM189.163 44.061V57.381H190.163V44.061H189.163ZM190.072 57.6684C193.138 53.3042 197.269 49.8782 202.478 47.3922L202.047 46.4897C196.696 49.0438 192.427 52.5777 189.254 57.0935L190.072 57.6684ZM202.486 47.3882C207.689 44.7868 213.551 43.481 220.083 43.481V42.481C213.414 42.481 207.396 43.8151 202.039 46.4938L202.486 47.3882ZM336.872 46.941L336.632 47.3799L336.636 47.3821L336.872 46.941ZM349.292 58.281L348.866 58.543L349.792 60.0475V58.281H349.292ZM349.292 44.061V43.561H348.792V44.061H349.292ZM380.072 44.061H380.572V43.561H380.072V44.061ZM374.492 169.341L374.044 169.117L374.04 169.126L374.492 169.341ZM357.752 187.341L357.499 186.91L357.495 186.912L357.752 187.341ZM293.672 183.381L293.976 182.984L293.973 182.982L293.672 183.381ZM277.832 154.941V154.441H277.274L277.335 154.996L277.832 154.941ZM308.252 154.941L308.737 154.82L308.642 154.441H308.252V154.941ZM315.092 163.941L315.359 163.518L315.349 163.512L315.092 163.941ZM343.532 161.781L343.19 161.416L343.184 161.422L343.178 161.427L343.532 161.781ZM349.292 130.101H349.792V128.394L348.871 129.831L349.292 130.101ZM336.872 141.621L337.111 142.06L337.119 142.056L336.872 141.621ZM295.832 139.641L295.561 140.062L295.567 140.065L295.832 139.641ZM279.812 121.461L279.362 121.679L279.366 121.687L279.812 121.461ZM279.812 66.921L279.366 66.6946L279.363 66.7001L279.812 66.921ZM295.832 48.921L296.097 49.345L295.832 48.921ZM342.812 76.101L342.448 76.4446L342.453 76.4496L342.812 76.101ZM311.672 76.101L311.313 75.7523L311.313 75.7524L311.672 76.101ZM311.672 112.461L311.304 112.8L311.313 112.81L311.672 112.461ZM342.812 112.461L342.453 112.112L342.448 112.117L342.812 112.461ZM318.332 43.121C325.343 43.121 331.438 44.5465 336.632 47.3799L337.111 46.502C331.746 43.5754 325.481 42.121 318.332 42.121V43.121ZM336.636 47.3821C341.967 50.2253 346.038 53.9469 348.866 58.543L349.718 58.0189C346.786 53.255 342.576 49.4167 337.107 46.4998L336.636 47.3821ZM349.792 58.281V44.061H348.792V58.281H349.792ZM349.292 44.561H380.072V43.561H349.292V44.561ZM379.572 44.061V144.321H380.572V44.061H379.572ZM379.572 144.321C379.572 153.492 377.726 161.754 374.044 169.117L374.939 169.565C378.697 162.048 380.572 153.63 380.572 144.321H379.572ZM374.04 169.126C370.485 176.591 364.977 182.518 357.499 186.91L358.005 187.772C365.647 183.284 371.298 177.211 374.943 169.556L374.04 169.126ZM357.495 186.912C350.152 191.294 340.947 193.501 329.852 193.501V194.501C341.076 194.501 350.471 192.268 358.008 187.77L357.495 186.912ZM329.852 193.501C315.051 193.501 303.107 189.981 293.976 182.984L293.368 183.778C302.717 190.941 314.893 194.501 329.852 194.501V193.501ZM293.973 182.982C284.848 176.109 279.634 166.756 278.329 154.886L277.335 154.996C278.669 167.126 284.015 176.733 293.371 183.78L293.973 182.982ZM277.832 155.441H308.252V154.441H277.832V155.441ZM307.767 155.062C308.761 159.039 311.128 162.146 314.834 164.37L315.349 163.512C311.855 161.416 309.663 158.523 308.737 154.82L307.767 155.062ZM314.824 164.363C318.521 166.705 323.06 167.861 328.412 167.861V166.861C323.204 166.861 318.862 165.737 315.359 163.519L314.824 164.363ZM328.412 167.861C334.875 167.861 340.052 165.967 343.885 162.135L343.178 161.427C339.571 165.035 334.669 166.861 328.412 166.861V167.861ZM343.874 162.146C347.857 158.411 349.792 152.427 349.792 144.321H348.792C348.792 152.295 346.886 157.951 343.19 161.416L343.874 162.146ZM349.792 144.321V130.101H348.792V144.321H349.792ZM348.871 129.831C345.918 134.437 341.841 138.223 336.625 141.186L337.119 142.056C342.463 139.019 346.665 135.125 349.713 130.371L348.871 129.831ZM336.632 141.182C331.438 144.015 325.343 145.441 318.332 145.441V146.441C325.481 146.441 331.746 144.987 337.111 142.06L336.632 141.182ZM318.332 145.441C310.141 145.441 302.734 143.365 296.097 139.217L295.567 140.065C302.37 144.317 309.962 146.441 318.332 146.441V145.441ZM296.102 139.22C289.464 134.953 284.181 128.963 280.258 121.235L279.366 121.687C283.362 129.559 288.76 135.689 295.561 140.062L296.102 139.22ZM280.262 121.243C276.46 113.402 274.552 104.358 274.552 94.101H273.552C273.552 104.484 275.484 113.68 279.362 121.679L280.262 121.243ZM274.552 94.101C274.552 83.8434 276.46 74.8614 280.26 67.1418L279.363 66.7001C275.484 74.5805 273.552 83.7186 273.552 94.101H274.552ZM280.258 67.1473C284.181 59.4197 289.462 53.4919 296.097 49.345L295.567 48.497C288.762 52.7501 283.363 58.8222 279.366 66.6946L280.258 67.1473ZM296.097 49.345C302.734 45.1969 310.141 43.121 318.332 43.121V42.121C309.962 42.121 302.37 44.245 295.567 48.497L296.097 49.345ZM349.792 94.281C349.792 86.5037 347.602 80.3068 343.17 75.7523L342.453 76.4496C346.662 80.7751 348.792 86.6983 348.792 94.281H349.792ZM343.175 75.7574C338.88 71.2174 333.589 68.941 327.332 68.941V69.941C333.315 69.941 338.343 72.1046 342.448 76.4446L343.175 75.7574ZM327.332 68.941C321.075 68.941 315.726 71.2169 311.313 75.7523L312.03 76.4496C316.257 72.1051 321.349 69.941 327.332 69.941V68.941ZM311.313 75.7524C306.999 80.1895 304.872 86.3282 304.872 94.101H305.872C305.872 86.5138 307.944 80.6525 312.03 76.4495L311.313 75.7524ZM304.872 94.101C304.872 101.875 307 108.127 311.304 112.8L312.039 112.122C307.944 107.675 305.872 101.687 305.872 94.101H304.872ZM311.313 112.81C315.726 117.345 321.075 119.621 327.332 119.621V118.621C321.349 118.621 316.257 116.457 312.03 112.112L311.313 112.81ZM327.332 119.621C333.589 119.621 338.88 117.345 343.175 112.805L342.448 112.117C338.343 116.457 333.315 118.621 327.332 118.621V119.621ZM343.17 112.81C347.602 108.255 349.792 102.058 349.792 94.281H348.792C348.792 101.864 346.662 107.787 342.453 112.112L343.17 112.81ZM419.8 141.441L420.001 140.983L419.8 141.441ZM403.6 129.201L403.2 129.501L403.203 129.505L403.6 129.201ZM396.94 111.561V111.061H396.401L396.441 111.598L396.94 111.561ZM427.36 111.561L427.857 111.51L427.811 111.061H427.36V111.561ZM432.22 120.021L432.52 119.621L432.22 120.021ZM451.66 121.101L451.948 121.509L451.952 121.506L451.66 121.101ZM450.4 108.861L450.183 109.312L450.191 109.315L450.198 109.319L450.4 108.861ZM435.82 104.181L435.941 103.696L435.933 103.694L435.82 104.181ZM417.82 98.961L417.634 99.4253L417.644 99.4291L417.82 98.961ZM405.4 90.141L405.019 90.4655L405.024 90.471L405.4 90.141ZM404.86 58.101L404.445 57.8212L404.444 57.8236L404.86 58.101ZM418.9 46.761L418.697 46.3037L418.694 46.3052L418.9 46.761ZM470.74 51.981L470.412 52.3588L470.415 52.3615L470.74 51.981ZM483.34 76.821V77.321H483.895L483.837 76.7689L483.34 76.821ZM454.9 76.821L454.404 76.8893L454.464 77.321H454.9V76.821ZM450.22 68.541L449.905 68.9297L449.914 68.9366L450.22 68.541ZM431.86 67.641L432.143 68.053L432.151 68.0472L432.16 68.041L431.86 67.641ZM433.48 79.701L433.263 80.1518L433.27 80.155L433.48 79.701ZM447.88 84.021L448.005 83.5368L447.996 83.5347L447.988 83.5329L447.88 84.021ZM466.06 89.781L465.87 90.2437L465.88 90.2477L466.06 89.781ZM478.3 98.781L477.915 99.1L477.92 99.106L477.925 99.1118L478.3 98.781ZM483.88 115.341H484.38L484.38 115.332L483.88 115.341ZM478.84 131.181L478.434 130.889L478.432 130.891L478.84 131.181ZM464.62 141.981L464.425 141.52L464.422 141.522L464.62 141.981ZM443.2 145.441C434.497 145.441 426.767 143.951 420.001 140.983L419.599 141.899C426.512 144.931 434.382 146.441 443.2 146.441V145.441ZM420.001 140.983C413.226 138.012 407.898 133.98 403.996 128.897L403.203 129.505C407.221 134.742 412.693 138.87 419.599 141.899L420.001 140.983ZM404 128.901C400.096 123.696 397.911 117.907 397.438 111.524L396.441 111.598C396.928 118.175 399.183 124.146 403.2 129.501L404 128.901ZM396.94 112.061H427.36V111.061H396.94V112.061ZM426.862 111.612C427.237 115.236 428.932 118.18 431.92 120.421L432.52 119.621C429.747 117.542 428.202 114.846 427.857 111.51L426.862 111.612ZM431.92 120.421C434.9 122.656 438.55 123.761 442.84 123.761V122.761C438.729 122.761 435.299 121.706 432.52 119.621L431.92 120.421ZM442.84 123.761C446.731 123.761 449.789 123.033 451.948 121.509L451.371 120.692C449.45 122.049 446.628 122.761 442.84 122.761V123.761ZM451.952 121.506C454.226 119.864 455.4 117.741 455.4 115.161H454.4C454.4 117.381 453.413 119.218 451.367 120.696L451.952 121.506ZM455.4 115.161C455.4 113.629 454.999 112.28 454.182 111.135C453.367 109.995 452.161 109.09 450.601 108.403L450.198 109.319C451.638 109.952 452.682 110.757 453.368 111.717C454.05 112.672 454.4 113.813 454.4 115.161H455.4ZM450.616 108.41C447.568 106.947 442.667 105.377 435.941 103.696L435.698 104.666C442.413 106.345 447.232 107.895 450.183 109.312L450.616 108.41ZM435.933 103.694C428.746 102.017 422.768 100.283 417.995 98.4928L417.644 99.4291C422.471 101.239 428.493 102.985 435.706 104.668L435.933 103.694ZM418.005 98.4967C413.28 96.6065 409.204 93.7131 405.775 89.8109L405.024 90.471C408.555 94.4888 412.76 97.4754 417.634 99.4252L418.005 98.4967ZM405.78 89.8165C402.397 85.8496 400.68 80.5156 400.68 73.761H399.68C399.68 80.6863 401.443 86.2723 405.019 90.4655L405.78 89.8165ZM400.68 73.761C400.68 68.0972 402.212 62.9741 405.276 58.3783L404.444 57.8236C401.268 62.5878 399.68 67.9048 399.68 73.761H400.68ZM405.274 58.3807C408.454 53.6692 413.056 49.9448 419.105 47.2168L418.694 46.3052C412.503 49.0972 407.745 52.9327 404.445 57.8212L405.274 58.3807ZM419.102 47.2182C425.264 44.4925 432.573 43.121 441.04 43.121V42.121C432.467 42.121 425.015 43.5094 418.697 46.3037L419.102 47.2182ZM441.04 43.121C453.559 43.121 463.329 46.22 470.412 52.3588L471.067 51.6031C463.75 45.2619 453.721 42.121 441.04 42.121V43.121ZM470.415 52.3615C477.63 58.5113 481.775 66.6696 482.842 76.873L483.837 76.7689C482.745 66.3323 478.49 57.9306 471.064 51.6005L470.415 52.3615ZM483.34 76.321H454.9V77.321H483.34V76.321ZM455.395 76.7527C454.898 73.1505 453.275 70.27 450.525 68.1453L449.914 68.9366C452.444 70.892 453.941 73.5314 454.404 76.8893L455.395 76.7527ZM450.534 68.1524C447.902 66.0213 444.42 64.981 440.14 64.981V65.981C444.259 65.981 447.497 66.9806 449.905 68.9296L450.534 68.1524ZM440.14 64.981C436.483 64.981 433.6 65.7108 431.56 67.241L432.16 68.041C433.959 66.6911 436.596 65.981 440.14 65.981V64.981ZM431.576 67.229C429.516 68.6455 428.48 70.6622 428.48 73.221H429.48C429.48 70.9797 430.363 69.2764 432.143 68.053L431.576 67.229ZM428.48 73.221C428.48 74.7528 428.88 76.1145 429.694 77.2862C430.505 78.4537 431.706 79.4041 433.263 80.1517L433.696 79.2502C432.254 78.5579 431.205 77.7082 430.515 76.7158C429.829 75.7275 429.48 74.5692 429.48 73.221H428.48ZM433.27 80.155C436.44 81.618 441.282 83.0671 447.771 84.5091L447.988 83.5329C441.517 82.0949 436.759 80.664 433.689 79.247L433.27 80.155ZM447.755 84.5051C455.183 86.422 461.219 88.3354 465.87 90.2436L466.249 89.3184C461.541 87.3865 455.457 85.4599 448.005 83.5368L447.755 84.5051ZM465.88 90.2477C470.473 92.0142 474.484 94.9601 477.915 99.1L478.685 98.462C475.155 94.2019 471.006 91.1478 466.239 89.3143L465.88 90.2477ZM477.925 99.1118C481.426 103.08 483.261 108.474 483.38 115.35L484.38 115.332C484.258 108.288 482.373 102.642 478.675 98.4502L477.925 99.1118ZM483.38 115.341C483.38 121.119 481.731 126.296 478.434 130.889L479.246 131.473C482.668 126.706 484.38 121.323 484.38 115.341H483.38ZM478.432 130.891C475.256 135.361 470.598 138.909 464.425 141.52L464.815 142.441C471.122 139.773 475.943 136.121 479.247 131.471L478.432 130.891ZM464.422 141.522C458.377 144.13 451.306 145.441 443.2 145.441V146.441C451.413 146.441 458.623 145.112 464.818 142.44L464.422 141.522ZM52.04 288.141L52.5238 288.267L52.6871 287.641H52.04V288.141ZM19.1 414.501V415.001H19.4864L19.5838 414.627L19.1 414.501ZM-18.16 414.501L-18.6459 414.619L-18.5533 415.001H-18.16V414.501ZM-38.32 331.341L-37.8341 331.223L-38.8049 331.219L-38.32 331.341ZM-59.2 414.501V415.001H-58.81L-58.715 414.623L-59.2 414.501ZM-96.46 414.501L-96.9447 414.624L-96.849 415.001H-96.46V414.501ZM-128.5 288.141V287.641H-129.143L-128.985 288.264L-128.5 288.141ZM-95.56 288.141L-95.0695 288.044L-95.1492 287.641H-95.56V288.141ZM-77.38 380.121L-77.8705 380.218L-76.8943 380.24L-77.38 380.121ZM-54.88 288.141V287.641H-55.2724L-55.3657 288.022L-54.88 288.141ZM-21.04 288.141L-20.5532 288.027L-20.6438 287.641H-21.04V288.141ZM0.560013 380.121L0.0732422 380.235L1.05034 380.219L0.560013 380.121ZM18.92 288.141V287.641H18.5099L18.4297 288.043L18.92 288.141ZM51.5562 288.015L18.6162 414.375L19.5838 414.627L52.5238 288.267L51.5562 288.015ZM19.1 414.001H-18.16V415.001H19.1V414.001ZM-17.6741 414.383L-37.8341 331.223L-38.8059 331.459L-18.6459 414.619L-17.6741 414.383ZM-38.8049 331.219L-59.6849 414.379L-58.715 414.623L-37.835 331.463L-38.8049 331.219ZM-59.2 414.001H-96.46V415.001H-59.2V414.001ZM-95.9753 414.378L-128.015 288.018L-128.985 288.264L-96.9447 414.624L-95.9753 414.378ZM-128.5 288.641H-95.56V287.641H-128.5V288.641ZM-96.0505 288.238L-77.8705 380.218L-76.8895 380.024L-95.0695 288.044L-96.0505 288.238ZM-76.8943 380.24L-54.3943 288.26L-55.3657 288.022L-77.8657 380.002L-76.8943 380.24ZM-54.88 288.641H-21.04V287.641H-54.88V288.641ZM-21.5267 288.255L0.0732422 380.235L1.04677 380.007L-20.5532 288.027L-21.5267 288.255ZM1.05034 380.219L19.4103 288.239L18.4297 288.043L0.0696869 380.023L1.05034 380.219ZM18.92 288.641H52.04V287.641H18.92V288.641ZM161.616 371.661V372.161H162.062L162.113 371.718L161.616 371.661ZM91.9564 371.661V371.161H91.4165L91.4579 371.699L91.9564 371.661ZM97.8964 386.061L97.5491 386.421L97.5554 386.427L97.5619 386.433L97.8964 386.061ZM127.056 381.201V380.701H126.737L126.603 380.991L127.056 381.201ZM159.816 381.201L160.301 381.324L160.46 380.701H159.816V381.201ZM150.636 399.021L150.254 398.699L150.249 398.704L150.636 399.021ZM134.256 411.441L134.463 411.896L134.256 411.441ZM85.8364 409.641L85.5965 410.08L85.8364 409.641ZM67.8364 391.641L68.2738 391.399L67.8364 391.641ZM67.6564 336.921L67.219 336.679L67.2162 336.684L67.6564 336.921ZM85.6564 318.921L85.8963 319.36L85.6564 318.921ZM138.036 318.741L137.799 319.181L138.036 318.741ZM155.676 336.201L155.239 336.444L155.242 336.449L155.676 336.201ZM130.656 354.561V355.061H131.156V354.561H130.656ZM125.256 341.961L125.584 341.583L125.256 341.961ZM98.6164 341.781L98.2963 341.397L98.2899 341.402L98.6164 341.781ZM92.1364 354.561L91.6421 354.486L91.5546 355.061H92.1364V354.561ZM161.656 362.661C161.656 365.52 161.478 368.501 161.12 371.604L162.113 371.718C162.475 368.581 162.656 365.562 162.656 362.661H161.656ZM161.616 371.161H91.9564V372.161H161.616V371.161ZM91.4579 371.699C91.9444 378.025 93.9577 382.953 97.5491 386.421L98.2437 385.701C94.8751 382.449 92.9284 377.777 92.4549 371.623L91.4579 371.699ZM97.5619 386.433C101.26 389.761 105.762 391.421 111.036 391.421V390.421C105.991 390.421 101.733 388.841 98.2309 385.689L97.5619 386.433ZM111.036 391.421C114.947 391.421 118.296 390.596 121.061 388.918C123.827 387.24 125.975 384.728 127.51 381.411L126.603 380.991C125.138 384.154 123.115 386.502 120.542 388.064C117.966 389.626 114.806 390.421 111.036 390.421V391.421ZM127.056 381.701H159.816V380.701H127.056V381.701ZM159.332 381.078C157.671 387.604 154.646 393.476 150.254 398.699L151.019 399.343C155.507 394.006 158.602 387.998 160.301 381.324L159.332 381.078ZM150.249 398.704C145.981 403.921 140.584 408.016 134.049 410.986L134.463 411.896C141.129 408.866 146.652 404.681 151.023 399.338L150.249 398.704ZM134.049 410.986C127.522 413.953 120.214 415.441 112.116 415.441V416.441C120.339 416.441 127.791 414.929 134.463 411.896L134.049 410.986ZM112.116 415.441C102.35 415.441 93.674 413.357 86.0763 409.202L85.5965 410.08C93.3588 414.325 102.203 416.441 112.116 416.441V415.441ZM86.0763 409.202C78.481 405.049 72.5488 399.117 68.2738 391.399L67.399 391.883C71.764 399.764 77.8318 405.833 85.5965 410.08L86.0763 409.202ZM68.2738 391.399C64.0014 383.685 61.8564 374.651 61.8564 364.281H60.8564C60.8564 374.791 63.0314 383.997 67.399 391.883L68.2738 391.399ZM61.8564 364.281C61.8564 353.909 63.9423 344.873 68.0966 337.158L67.2162 336.684C62.9705 344.569 60.8564 353.773 60.8564 364.281H61.8564ZM68.0938 337.163C72.3688 329.444 78.301 323.513 85.8963 319.36L85.4165 318.482C77.6518 322.729 71.584 328.797 67.219 336.679L68.0938 337.163ZM85.8963 319.36C93.4931 315.205 102.229 313.121 112.116 313.121V312.121C102.084 312.121 93.1797 314.237 85.4165 318.482L85.8963 319.36ZM112.116 313.121C121.765 313.121 130.321 315.145 137.799 319.181L138.274 318.301C130.632 314.177 121.908 312.121 112.116 312.121V313.121ZM137.799 319.181C145.274 323.215 151.085 328.967 155.239 336.444L156.113 335.958C151.867 328.315 145.918 322.427 138.274 318.301L137.799 319.181ZM155.242 336.449C159.513 343.922 161.656 352.654 161.656 362.661H162.656C162.656 352.508 160.48 343.6 156.111 335.953L155.242 336.449ZM131.156 354.561C131.156 349.154 129.306 344.809 125.584 341.583L124.929 342.339C128.407 345.353 130.156 349.408 130.156 354.561H131.156ZM125.584 341.583C121.881 338.374 117.26 336.781 111.756 336.781V337.781C117.053 337.781 121.432 339.308 124.929 342.339L125.584 341.583ZM111.756 336.781C106.492 336.781 101.995 338.314 98.2963 341.397L98.9365 342.165C102.437 339.248 106.701 337.781 111.756 337.781V336.781ZM98.2899 341.402C94.7012 344.496 92.496 348.874 91.6421 354.486L92.6307 354.636C93.4568 349.208 95.5716 345.066 98.9429 342.16L98.2899 341.402ZM92.1364 355.061H130.656V354.061H92.1364V355.061ZM298.799 296.061L299.033 295.619L298.799 296.061ZM321.839 318.381L321.403 318.626L321.407 318.633L321.839 318.381ZM321.839 384.261L321.405 384.012L321.403 384.016L321.839 384.261ZM298.619 406.581L298.387 406.138L298.385 406.139L298.619 406.581ZM216.539 414.501H216.039V415.001H216.539V414.501ZM216.539 288.141V287.641H216.039V288.141H216.539ZM247.319 314.421V313.921H246.819V314.421H247.319ZM247.319 387.861H246.819V388.361H247.319V387.861ZM263.879 288.641C277.132 288.641 288.689 291.267 298.565 296.503L299.033 295.619C288.989 290.295 277.266 287.641 263.879 287.641V288.641ZM298.565 296.503C308.442 301.739 316.051 309.112 321.403 318.626L322.275 318.136C316.827 308.45 309.076 300.943 299.033 295.619L298.565 296.503ZM321.407 318.633C326.876 328.026 329.619 338.917 329.619 351.321H330.619C330.619 338.765 327.841 327.696 322.271 318.129L321.407 318.633ZM329.619 351.321C329.619 363.604 326.877 374.496 321.405 384.012L322.272 384.51C327.841 374.826 330.619 363.758 330.619 351.321H329.619ZM321.403 384.016C316.052 393.529 308.384 400.901 298.387 406.138L298.851 407.024C309.014 401.701 316.826 394.193 322.275 384.506L321.403 384.016ZM298.385 406.139C288.508 411.375 277.011 414.001 263.879 414.001V415.001C277.147 415.001 288.81 412.347 298.853 407.023L298.385 406.139ZM263.879 414.001H216.539V415.001H263.879V414.001ZM217.039 414.501V288.141H216.039V414.501H217.039ZM216.539 288.641H263.879V287.641H216.539V288.641ZM261.899 388.361C273.631 388.361 282.831 385.153 289.429 378.678L288.729 377.964C282.366 384.208 273.447 387.361 261.899 387.361V388.361ZM289.429 378.678C296.03 372.199 299.299 363.055 299.299 351.321H298.299C298.299 362.867 295.088 371.723 288.729 377.964L289.429 378.678ZM299.299 351.321C299.299 339.586 296.03 330.385 289.432 323.787L288.725 324.495C295.088 330.857 298.299 339.776 298.299 351.321H299.299ZM289.432 323.787C282.835 317.19 273.634 313.921 261.899 313.921V314.921C273.444 314.921 282.363 318.132 288.725 324.495L289.432 323.787ZM261.899 313.921H247.319V314.921H261.899V313.921ZM246.819 314.421V387.861H247.819V314.421H246.819ZM247.319 388.361H261.899V387.361H247.319V388.361ZM366.4 409.641L366.163 410.081L366.166 410.083L366.4 409.641ZM347.86 391.641L347.426 391.888L347.428 391.893L347.86 391.641ZM348.04 337.101L348.472 337.353L348.473 337.35L348.04 337.101ZM366.76 318.921L366.994 319.363L366.76 318.921ZM420.04 318.921L419.806 319.363L420.04 318.921ZM438.76 337.101L438.327 337.35L438.328 337.353L438.76 337.101ZM438.58 391.641L438.15 391.387L438.148 391.389L438.58 391.641ZM419.68 409.641L419.449 409.198L419.446 409.199L419.68 409.641ZM407.98 382.821L407.622 382.472L407.617 382.478L407.98 382.821ZM408.16 345.741L407.792 346.079L407.797 346.084L408.16 345.741ZM378.46 345.741L378.824 346.084L378.829 346.079L378.46 345.741ZM378.28 382.821L377.906 383.153L377.912 383.159L378.28 382.821ZM393.04 415.441C383.274 415.441 374.475 413.357 366.634 409.199L366.166 410.083C374.165 414.325 383.127 416.441 393.04 416.441V415.441ZM366.637 409.201C358.92 405.045 352.806 399.111 348.292 391.389L347.428 391.893C352.034 399.771 358.281 405.837 366.163 410.081L366.637 409.201ZM348.295 391.394C343.904 383.681 341.7 374.649 341.7 364.281H340.7C340.7 374.793 342.936 384.001 347.426 391.888L348.295 391.394ZM341.7 364.281C341.7 354.037 343.963 345.066 348.472 337.353L347.609 336.849C342.998 344.736 340.7 353.885 340.7 364.281H341.7ZM348.473 337.35C352.987 329.51 359.159 323.518 366.994 319.363L366.526 318.479C358.521 322.724 352.213 328.852 347.607 336.852L348.473 337.35ZM366.994 319.363C374.835 315.205 383.634 313.121 393.4 313.121V312.121C383.487 312.121 374.525 314.237 366.526 318.479L366.994 319.363ZM393.4 313.121C403.167 313.121 411.965 315.205 419.806 319.363L420.274 318.479C412.275 314.237 403.314 312.121 393.4 312.121V313.121ZM419.806 319.363C427.641 323.518 433.813 329.51 438.327 337.35L439.193 336.852C434.587 328.852 428.279 322.724 420.274 318.479L419.806 319.363ZM438.328 337.353C442.838 345.066 445.1 354.037 445.1 364.281H446.1C446.1 353.885 443.803 344.736 439.192 336.849L438.328 337.353ZM445.1 364.281C445.1 374.523 442.779 383.553 438.15 391.387L439.011 391.895C443.742 383.889 446.1 374.679 446.1 364.281H445.1ZM438.148 391.389C433.636 399.107 427.406 405.041 419.449 409.198L419.912 410.084C428.035 405.841 434.404 399.775 439.012 391.893L438.148 391.389ZM419.446 409.199C411.605 413.357 402.807 415.441 393.04 415.441V416.441C402.954 416.441 411.915 414.325 419.914 410.083L419.446 409.199ZM393.04 389.801C399.059 389.801 404.17 387.583 408.344 383.164L407.617 382.478C403.63 386.699 398.781 388.801 393.04 388.801V389.801ZM408.339 383.17C412.656 378.728 414.78 372.406 414.78 364.281H413.78C413.78 372.236 411.704 378.274 407.622 382.472L408.339 383.17ZM414.78 364.281C414.78 356.159 412.718 349.839 408.524 345.398L407.797 346.084C411.762 350.283 413.78 356.323 413.78 364.281H414.78ZM408.529 345.403C404.474 340.979 399.42 338.761 393.4 338.761V339.761C399.141 339.761 403.927 341.863 407.792 346.079L408.529 345.403ZM393.4 338.761C387.264 338.761 382.149 340.977 378.092 345.403L378.829 346.079C382.691 341.865 387.536 339.761 393.4 339.761V338.761ZM378.096 345.398C374.018 349.723 372.02 356.046 372.02 364.281H373.02C373.02 356.196 374.982 350.159 378.824 346.084L378.096 345.398ZM372.02 364.281C372.02 372.396 373.958 378.711 377.906 383.153L378.654 382.489C374.922 378.291 373.02 372.246 373.02 364.281H372.02ZM377.912 383.159C381.967 387.583 387.021 389.801 393.04 389.801V388.801C387.3 388.801 382.514 386.699 378.649 382.483L377.912 383.159Z" fill="#D9D9D9"/>
</svg>
