<svg width="18" height="17" viewBox="0 0 18 17" fill="none" xmlns="http://www.w3.org/2000/svg">
<g clip-path="url(#clip0_3_665)">
<path d="M13.1843 0.202637C11.7053 0.202637 10.2858 0.924353 9.35931 2.06484C8.43281 0.924353 7.01331 0.202637 5.53431 0.202637C2.91631 0.202637 0.859314 2.35888 0.859314 5.10318C0.859314 8.47119 3.74931 11.2155 8.12681 15.3854L9.35931 16.5526L10.5918 15.3765C14.9693 11.2155 17.8593 8.47119 17.8593 5.10318C17.8593 2.35888 15.8023 0.202637 13.1843 0.202637ZM9.44431 14.0578L9.35931 14.1469L9.27431 14.0578C5.22831 10.2176 2.55931 7.6782 2.55931 5.10318C2.55931 3.32117 3.83431 1.98465 5.53431 1.98465C6.84331 1.98465 8.11831 2.86675 8.56881 4.08743H10.1583C10.6003 2.86675 11.8753 1.98465 13.1843 1.98465C14.8843 1.98465 16.1593 3.32117 16.1593 5.10318C16.1593 7.6782 13.4903 10.2176 9.44431 14.0578Z" fill="#13BEFF"/>
</g>
<defs>
<clipPath id="clip0_3_665">
<rect width="16.8062" height="15.85" fill="white" transform="translate(0.859314 0.202637)"/>
</clipPath>
</defs>
</svg>
