<svg width="17" height="19" viewBox="0 0 17 19" fill="none" xmlns="http://www.w3.org/2000/svg">
<g clip-path="url(#clip0_3_667)">
<path d="M13.9347 12.8748C13.2591 12.8748 12.6547 13.1448 12.1924 13.5678L5.85465 9.83276C5.8991 9.62575 5.93465 9.41875 5.93465 9.20275C5.93465 8.98675 5.8991 8.77974 5.85465 8.57274L12.1213 4.87369C12.6013 5.3237 13.2324 5.6027 13.9347 5.6027C15.4102 5.6027 16.6013 4.39669 16.6013 2.90267C16.6013 1.40865 15.4102 0.202637 13.9347 0.202637C12.4591 0.202637 11.268 1.40865 11.268 2.90267C11.268 3.11867 11.3035 3.32568 11.348 3.53268L5.08132 7.23172C4.60132 6.78172 3.97021 6.50272 3.26798 6.50272C1.79243 6.50272 0.601318 7.70873 0.601318 9.20275C0.601318 10.6968 1.79243 11.9028 3.26798 11.9028C3.97021 11.9028 4.60132 11.6238 5.08132 11.1738L11.4102 14.9178C11.3658 15.1068 11.3391 15.3048 11.3391 15.5028C11.3391 16.9518 12.5035 18.1309 13.9347 18.1309C15.3658 18.1309 16.5302 16.9518 16.5302 15.5028C16.5302 14.0538 15.3658 12.8748 13.9347 12.8748Z" fill="#13BEFF"/>
</g>
<defs>
<clipPath id="clip0_3_667">
<rect width="16.1501" height="17.8728" fill="white" transform="translate(0.601318 0.202637)"/>
</clipPath>
</defs>
</svg>
